<svg xmlns="http://www.w3.org/2000/svg" viewBox="0 0 139 88.13"><defs><style>.cls-1{fill:none;stroke:#fff;stroke-miterlimit:10;stroke-width:4px;}</style></defs><title>emailIcon</title><g id="Layer_2" data-name="Layer 2"><g id="Layer_1-2" data-name="Layer 1"><path class="cls-1" d="M124.28,86.13H14.72A12.71,12.71,0,0,1,2,73.41V14.72A12.72,12.72,0,0,1,12,2.28,13.1,13.1,0,0,1,14.72,2H124.28A12.71,12.71,0,0,1,137,14.72V73.41A12.71,12.71,0,0,1,124.28,86.13Z"/><path class="cls-1" d="M70.78,52.8,122.11,3.61A.93.93,0,0,0,121.47,2H18.81a.94.94,0,0,0-.65,1.61L69.49,52.8A.92.92,0,0,0,70.78,52.8Z"/></g></g></svg>