<svg xmlns="http://www.w3.org/2000/svg" viewBox="0 0 61.54 96.33"><defs><style>.cls-1{fill:none;stroke:#fff;stroke-miterlimit:10;stroke-width:4px;}.cls-2{fill:#fff;}</style></defs><title>phoneIcon_3</title><g id="Layer_2" data-name="Layer 2"><g id="Layer_1-2" data-name="Layer 1"><path class="cls-1" d="M2,85.63V10.7A8.69,8.69,0,0,1,10.7,2H50.84a8.7,8.7,0,0,1,8.5,6.86,8.57,8.57,0,0,1,.2,1.84V85.63a8.71,8.71,0,0,1-8.7,8.7H10.7A8.7,8.7,0,0,1,2,85.63Z"/><path class="cls-2" d="M3.72,79.38v13.4h54.1V79.38ZM30.77,92a4.55,4.55,0,1,1,4.4-4.54A4.47,4.47,0,0,1,30.77,92Z"/><path class="cls-2" d="M3.76,3V14.79H57.68V3ZM40.51,9a2.06,2.06,0,0,1-2,2.11H23A2.05,2.05,0,0,1,21,9V8.27a2.05,2.05,0,0,1,2-2.11H38.52a2.06,2.06,0,0,1,2,2.11Z"/></g></g></svg>